<mxfile host="app.diagrams.net" modified="2025-03-21T13:00:00.000Z" agent="Mozilla/5.0" version="21.0.10" type="device"><diagram id="milvus-architecture" name="Milvus Architecture"><mxGraphModel dx="1422" dy="762" grid="1" gridSize="10" guides="1" tooltips="1" connect="1" arrows="1" fold="1" page="1" pageScale="1" pageWidth="1100" pageHeight="850" math="0" shadow="0"><root><mxCell id="0"/><mxCell id="1" parent="0"/><mxCell id="2" value="Client" style="rounded=1;whiteSpace=wrap;html=1;fillColor=#dae8fc;strokeColor=#6c8ebf;" vertex="1" parent="1"><mxGeometry x="480" y="40" width="120" height="60" as="geometry"/></mxCell><mxCell id="3" value="Proxy" style="rounded=1;whiteSpace=wrap;html=1;fillColor=#d5e8d4;strokeColor=#82b366;" vertex="1" parent="1"><mxGeometry x="480" y="160" width="120" height="60" as="geometry"/></mxCell><mxCell id="4" value="Root Coordinator" style="rounded=1;whiteSpace=wrap;html=1;fillColor=#fff2cc;strokeColor=#d6b656;" vertex="1" parent="1"><mxGeometry x="200" y="280" width="120" height="60" as="geometry"/></mxCell><mxCell id="5" value="Query Coordinator" style="rounded=1;whiteSpace=wrap;html=1;fillColor=#fff2cc;strokeColor=#d6b656;" vertex="1" parent="1"><mxGeometry x="360" y="280" width="120" height="60" as="geometry"/></mxCell><mxCell id="6" value="Data Coordinator" style="rounded=1;whiteSpace=wrap;html=1;fillColor=#fff2cc;strokeColor=#d6b656;" vertex="1" parent="1"><mxGeometry x="520" y="280" width="120" height="60" as="geometry"/></mxCell><mxCell id="7" value="Index Coordinator" style="rounded=1;whiteSpace=wrap;html=1;fillColor=#fff2cc;strokeColor=#d6b656;" vertex="1" parent="1"><mxGeometry x="680" y="280" width="120" height="60" as="geometry"/></mxCell><mxCell id="8" value="Mix Coordinator&#xa;(combines all coordinators)" style="rounded=1;whiteSpace=wrap;html=1;fillColor=#fff2cc;strokeColor=#d6b656;dashed=1;" vertex="1" parent="1"><mxGeometry x="440" y="380" width="200" height="60" as="geometry"/></mxCell><mxCell id="9" value="Query Node" style="rounded=1;whiteSpace=wrap;html=1;fillColor=#e1d5e7;strokeColor=#9673a6;" vertex="1" parent="1"><mxGeometry x="280" y="480" width="120" height="60" as="geometry"/></mxCell><mxCell id="10" value="Data Node" style="rounded=1;whiteSpace=wrap;html=1;fillColor=#e1d5e7;strokeColor=#9673a6;" vertex="1" parent="1"><mxGeometry x="480" y="480" width="120" height="60" as="geometry"/></mxCell><mxCell id="11" value="Index Node" style="rounded=1;whiteSpace=wrap;html=1;fillColor=#e1d5e7;strokeColor=#9673a6;" vertex="1" parent="1"><mxGeometry x="680" y="480" width="120" height="60" as="geometry"/></mxCell><mxCell id="12" value="etcd&#xa;(metadata storage)" style="shape=cylinder3;whiteSpace=wrap;html=1;boundedLbl=1;backgroundOutline=1;size=15;fillColor=#f8cecc;strokeColor=#b85450;" vertex="1" parent="1"><mxGeometry x="200" y="600" width="120" height="80" as="geometry"/></mxCell><mxCell id="13" value="MinIO / S3&#xa;(object storage)" style="shape=cylinder3;whiteSpace=wrap;html=1;boundedLbl=1;backgroundOutline=1;size=15;fillColor=#f8cecc;strokeColor=#b85450;" vertex="1" parent="1"><mxGeometry x="400" y="600" width="120" height="80" as="geometry"/></mxCell><mxCell id="14" value="Pulsar / Kafka&#xa;(message queue)" style="shape=cylinder3;whiteSpace=wrap;html=1;boundedLbl=1;backgroundOutline=1;size=15;fillColor=#f8cecc;strokeColor=#b85450;" vertex="1" parent="1"><mxGeometry x="600" y="600" width="120" height="80" as="geometry"/></mxCell><mxCell id="15" value="" style="endArrow=classic;startArrow=classic;html=1;rounded=0;exitX=0.5;exitY=0;exitDx=0;exitDy=0;entryX=0.5;entryY=1;entryDx=0;entryDy=0;" edge="1" parent="1" source="3" target="2"><mxGeometry width="50" height="50" relative="1" as="geometry"><mxPoint x="520" y="410" as="sourcePoint"/><mxPoint x="570" y="360" as="targetPoint"/></mxGeometry></mxCell><mxCell id="16" value="" style="endArrow=classic;startArrow=classic;html=1;rounded=0;exitX=0.5;exitY=0;exitDx=0;exitDy=0;entryX=0.25;entryY=1;entryDx=0;entryDy=0;" edge="1" parent="1" source="4" target="3"><mxGeometry width="50" height="50" relative="1" as="geometry"><mxPoint x="520" y="410" as="sourcePoint"/><mxPoint x="570" y="360" as="targetPoint"/><Array as="points"><mxPoint x="260" y="240"/><mxPoint x="510" y="240"/></Array></mxGeometry></mxCell><mxCell id="17" value="" style="endArrow=classic;startArrow=classic;html=1;rounded=0;exitX=0.5;exitY=0;exitDx=0;exitDy=0;entryX=0.417;entryY=1;entryDx=0;entryDy=0;entryPerimeter=0;" edge="1" parent="1" source="5" target="3"><mxGeometry width="50" height="50" relative="1" as="geometry"><mxPoint x="520" y="410" as="sourcePoint"/><mxPoint x="570" y="360" as="targetPoint"/><Array as="points"><mxPoint x="420" y="240"/><mxPoint x="530" y="240"/></Array></mxGeometry></mxCell><mxCell id="18" value="" style="endArrow=classic;startArrow=classic;html=1;rounded=0;exitX=0.5;exitY=0;exitDx=0;exitDy=0;entryX=0.583;entryY=1;entryDx=0;entryDy=0;entryPerimeter=0;" edge="1" parent="1" source="6" target="3"><mxGeometry width="50" height="50" relative="1" as="geometry"><mxPoint x="520" y="410" as="sourcePoint"/><mxPoint x="570" y="360" as="targetPoint"/><Array as="points"><mxPoint x="580" y="240"/><mxPoint x="550" y="240"/></Array></mxGeometry></mxCell><mxCell id="19" value="" style="endArrow=classic;startArrow=classic;html=1;rounded=0;exitX=0.5;exitY=0;exitDx=0;exitDy=0;entryX=0.75;entryY=1;entryDx=0;entryDy=0;" edge="1" parent="1" source="7" target="3"><mxGeometry width="50" height="50" relative="1" as="geometry"><mxPoint x="520" y="410" as="sourcePoint"/><mxPoint x="570" y="360" as="targetPoint"/><Array as="points"><mxPoint x="740" y="240"/><mxPoint x="570" y="240"/></Array></mxGeometry></mxCell><mxCell id="20" value="" style="endArrow=classic;startArrow=classic;html=1;rounded=0;exitX=0.5;exitY=0;exitDx=0;exitDy=0;entryX=0.5;entryY=1;entryDx=0;entryDy=0;" edge="1" parent="1" source="8" target="3"><mxGeometry width="50" height="50" relative="1" as="geometry"><mxPoint x="520" y="410" as="sourcePoint"/><mxPoint x="570" y="360" as="targetPoint"/></mxGeometry></mxCell><mxCell id="21" value="" style="endArrow=classic;startArrow=classic;html=1;rounded=0;exitX=0.5;exitY=0;exitDx=0;exitDy=0;entryX=0.5;entryY=1;entryDx=0;entryDy=0;" edge="1" parent="1" source="9" target="5"><mxGeometry width="50" height="50" relative="1" as="geometry"><mxPoint x="520" y="410" as="sourcePoint"/><mxPoint x="570" y="360" as="targetPoint"/><Array as="points"><mxPoint x="340" y="360"/><mxPoint x="420" y="360"/></Array></mxGeometry></mxCell><mxCell id="22" value="" style="endArrow=classic;startArrow=classic;html=1;rounded=0;exitX=0.5;exitY=0;exitDx=0;exitDy=0;entryX=0.5;entryY=1;entryDx=0;entryDy=0;" edge="1" parent="1" source="10" target="6"><mxGeometry width="50" height="50" relative="1" as="geometry"><mxPoint x="520" y="410" as="sourcePoint"/><mxPoint x="570" y="360" as="targetPoint"/></mxGeometry></mxCell><mxCell id="23" value="" style="endArrow=classic;startArrow=classic;html=1;rounded=0;exitX=0.5;exitY=0;exitDx=0;exitDy=0;entryX=0.5;entryY=1;entryDx=0;entryDy=0;" edge="1" parent="1" source="11" target="7"><mxGeometry width="50" height="50" relative="1" as="geometry"><mxPoint x="520" y="410" as="sourcePoint"/><mxPoint x="570" y="360" as="targetPoint"/></mxGeometry></mxCell><mxCell id="24" value="" style="endArrow=classic;startArrow=classic;html=1;rounded=0;exitX=0.5;exitY=0;exitDx=0;exitDy=0;entryX=0.25;entryY=1;entryDx=0;entryDy=0;" edge="1" parent="1" source="12" target="9"><mxGeometry width="50" height="50" relative="1" as="geometry"><mxPoint x="520" y="410" as="sourcePoint"/><mxPoint x="570" y="360" as="targetPoint"/><Array as="points"><mxPoint x="260" y="560"/><mxPoint x="310" y="560"/></Array></mxGeometry></mxCell><mxCell id="25" value="" style="endArrow=classic;startArrow=classic;html=1;rounded=0;exitX=0.5;exitY=0;exitDx=0;exitDy=0;entryX=0.5;entryY=1;entryDx=0;entryDy=0;" edge="1" parent="1" source="13" target="10"><mxGeometry width="50" height="50" relative="1" as="geometry"><mxPoint x="520" y="410" as="sourcePoint"/><mxPoint x="570" y="360" as="targetPoint"/></mxGeometry></mxCell><mxCell id="26" value="" style="endArrow=classic;startArrow=classic;html=1;rounded=0;exitX=0.5;exitY=0;exitDx=0;exitDy=0;entryX=0.5;entryY=1;entryDx=0;entryDy=0;" edge="1" parent="1" source="14" target="11"><mxGeometry width="50" height="50" relative="1" as="geometry"><mxPoint x="520" y="410" as="sourcePoint"/><mxPoint x="570" y="360" as="targetPoint"/><Array as="points"><mxPoint x="660" y="560"/><mxPoint x="740" y="560"/></Array></mxGeometry></mxCell><mxCell id="27" value="" style="endArrow=classic;startArrow=classic;html=1;rounded=0;exitX=0;exitY=0.5;exitDx=0;exitDy=0;entryX=0;entryY=0.5;entryDx=0;entryDy=0;" edge="1" parent="1" source="12" target="4"><mxGeometry width="50" height="50" relative="1" as="geometry"><mxPoint x="520" y="410" as="sourcePoint"/><mxPoint x="570" y="360" as="targetPoint"/><Array as="points"><mxPoint x="160" y="640"/><mxPoint x="160" y="310"/></Array></mxGeometry></mxCell><mxCell id="28" value="" style="endArrow=classic;startArrow=classic;html=1;rounded=0;exitX=0.5;exitY=0;exitDx=0;exitDy=0;entryX=0.75;entryY=1;entryDx=0;entryDy=0;" edge="1" parent="1" source="14" target="9"><mxGeometry width="50" height="50" relative="1" as="geometry"><mxPoint x="520" y="410" as="sourcePoint"/><mxPoint x="570" y="360" as="targetPoint"/><Array as="points"><mxPoint x="660" y="560"/><mxPoint x="370" y="560"/></Array></mxGeometry></mxCell><mxCell id="29" value="Client Interface" style="text;html=1;strokeColor=none;fillColor=none;align=center;verticalAlign=middle;whiteSpace=wrap;rounded=0;fontStyle=1" vertex="1" parent="1"><mxGeometry x="40" y="55" width="100" height="30" as="geometry"/></mxCell><mxCell id="30" value="Access Layer" style="text;html=1;strokeColor=none;fillColor=none;align=center;verticalAlign=middle;whiteSpace=wrap;rounded=0;fontStyle=1" vertex="1" parent="1"><mxGeometry x="40" y="175" width="100" height="30" as="geometry"/></mxCell><mxCell id="31" value="Coordination Layer" style="text;html=1;strokeColor=none;fillColor=none;align=center;verticalAlign=middle;whiteSpace=wrap;rounded=0;fontStyle=1" vertex="1" parent="1"><mxGeometry x="40" y="310" width="120" height="30" as="geometry"/></mxCell><mxCell id="32" value="Worker Layer" style="text;html=1;strokeColor=none;fillColor=none;align=center;verticalAlign=middle;whiteSpace=wrap;rounded=0;fontStyle=1" vertex="1" parent="1"><mxGeometry x="40" y="495" width="100" height="30" as="geometry"/></mxCell><mxCell id="33" value="Storage Layer" style="text;html=1;strokeColor=none;fillColor=none;align=center;verticalAlign=middle;whiteSpace=wrap;rounded=0;fontStyle=1" vertex="1" parent="1"><mxGeometry x="40" y="625" width="100" height="30" as="geometry"/></mxCell><mxCell id="34" value="Milvus Architecture" style="text;html=1;strokeColor=none;fillColor=none;align=center;verticalAlign=middle;whiteSpace=wrap;rounded=0;fontSize=20;fontStyle=1" vertex="1" parent="1"><mxGeometry x="440" y="10" width="200" height="30" as="geometry"/></mxCell><mxCell id="35" value="" style="endArrow=classic;startArrow=classic;html=1;rounded=0;exitX=0.5;exitY=0;exitDx=0;exitDy=0;entryX=0.25;entryY=1;entryDx=0;entryDy=0;" edge="1" parent="1" source="13" target="9"><mxGeometry width="50" height="50" relative="1" as="geometry"><mxPoint x="520" y="410" as="sourcePoint"/><mxPoint x="570" y="360" as="targetPoint"/><Array as="points"><mxPoint x="460" y="560"/><mxPoint x="310" y="560"/></Array></mxGeometry></mxCell><mxCell id="36" value="" style="endArrow=classic;startArrow=classic;html=1;rounded=0;exitX=0.5;exitY=0;exitDx=0;exitDy=0;entryX=0.25;entryY=1;entryDx=0;entryDy=0;" edge="1" parent="1" source="12" target="10"><mxGeometry width="50" height="50" relative="1" as="geometry"><mxPoint x="520" y="410" as="sourcePoint"/><mxPoint x="570" y="360" as="targetPoint"/><Array as="points"><mxPoint x="260" y="560"/><mxPoint x="510" y="560"/></Array></mxGeometry></mxCell><mxCell id="37" value="" style="endArrow=classic;startArrow=classic;html=1;rounded=0;exitX=0.5;exitY=0;exitDx=0;exitDy=0;entryX=0.25;entryY=1;entryDx=0;entryDy=0;" edge="1" parent="1" source="12" target="11"><mxGeometry width="50" height="50" relative="1" as="geometry"><mxPoint x="520" y="410" as="sourcePoint"/><mxPoint x="570" y="360" as="targetPoint"/><Array as="points"><mxPoint x="260" y="560"/><mxPoint x="710" y="560"/></Array></mxGeometry></mxCell><mxCell id="38" value="" style="endArrow=classic;startArrow=classic;html=1;rounded=0;exitX=0.5;exitY=0;exitDx=0;exitDy=0;entryX=0.75;entryY=1;entryDx=0;entryDy=0;" edge="1" parent="1" source="13" target="11"><mxGeometry width="50" height="50" relative="1" as="geometry"><mxPoint x="520" y="410" as="sourcePoint"/><mxPoint x="570" y="360" as="targetPoint"/><Array as="points"><mxPoint x="460" y="560"/><mxPoint x="770" y="560"/></Array></mxGeometry></mxCell><mxCell id="39" value="" style="endArrow=classic;startArrow=classic;html=1;rounded=0;exitX=0.5;exitY=0;exitDx=0;exitDy=0;entryX=0.75;entryY=1;entryDx=0;entryDy=0;" edge="1" parent="1" source="14" target="10"><mxGeometry width="50" height="50" relative="1" as="geometry"><mxPoint x="520" y="410" as="sourcePoint"/><mxPoint x="570" y="360" as="targetPoint"/><Array as="points"><mxPoint x="660" y="560"/><mxPoint x="570" y="560"/></Array></mxGeometry></mxCell></root></mxGraphModel></diagram></mxfile>
